<svg xmlns="http://www.w3.org/2000/svg" id="Camada_2" viewBox="0 0 226.77 141.23"><defs><style>.cls-1{fill:#0032be;}.cls-2{fill:#46b2ff;}</style></defs><g id="Camada_1-2"><g><g><path class="cls-2" d="M24.62,117.96H6.25c.09,2.23,.69,3.88,1.81,4.93,1.12,1.06,2.5,1.58,4.16,1.58,1.48,0,2.71-.36,3.69-1.09,.98-.72,1.61-1.7,1.88-2.94h6.74c-.33,1.75-1.04,3.32-2.13,4.71-1.09,1.39-2.48,2.47-4.19,3.26-1.71,.78-3.6,1.18-5.68,1.18-2.44,0-4.62-.52-6.52-1.56-1.9-1.04-3.38-2.53-4.44-4.46-1.06-1.93-1.58-4.21-1.58-6.83s.53-4.91,1.58-6.86c1.06-1.95,2.53-3.43,4.44-4.46,1.9-1.03,4.07-1.54,6.52-1.54s4.64,.51,6.5,1.54c1.86,1.03,3.29,2.44,4.3,4.23,1.01,1.8,1.52,3.84,1.52,6.13,0,.63-.08,1.36-.23,2.17Zm-7.81-7.47c-1.16-1.06-2.59-1.58-4.28-1.58s-3.17,.53-4.35,1.58c-1.18,1.06-1.83,2.61-1.95,4.66h12.18c.09-2.05-.45-3.61-1.61-4.66Z"></path><path class="cls-2" d="M43.95,105.38c1.49,1,2.57,2.34,3.24,4.03v-13.62h6.34v33.49h-6.34v-5.25c-.66,1.69-1.74,3.04-3.24,4.05-1.49,1.01-3.3,1.52-5.41,1.52s-4.01-.51-5.7-1.54c-1.69-1.03-3.01-2.51-3.96-4.46s-1.43-4.23-1.43-6.86,.48-4.91,1.43-6.86,2.27-3.43,3.96-4.46c1.69-1.03,3.59-1.54,5.7-1.54s3.92,.5,5.41,1.49Zm-8.22,6.02c-1.21,1.3-1.81,3.08-1.81,5.34s.6,4.04,1.81,5.32c1.21,1.28,2.81,1.92,4.8,1.92s3.52-.66,4.78-1.97c1.25-1.31,1.88-3.07,1.88-5.27s-.63-4.01-1.88-5.32c-1.25-1.31-2.84-1.97-4.78-1.97s-3.59,.65-4.8,1.95Z"></path><path class="cls-2" d="M82.85,104.2v25.08h-6.38v-5.07c-.66,1.69-1.76,3.01-3.28,3.96-1.52,.95-3.28,1.43-5.27,1.43-2.9,0-5.21-.95-6.93-2.85s-2.58-4.56-2.58-7.97v-14.57h6.34v13.85c0,1.99,.51,3.54,1.54,4.64,1.03,1.1,2.41,1.65,4.16,1.65,1.84,0,3.3-.59,4.39-1.77,1.09-1.18,1.63-2.87,1.63-5.07v-13.31h6.38Z"></path><path class="cls-2" d="M107.44,106.51c2.16,1.75,3.51,4.13,4.05,7.15h-6.74c-.27-1.33-.89-2.38-1.86-3.15-.97-.77-2.19-1.15-3.67-1.15-1.69,0-3.1,.63-4.23,1.88-1.13,1.25-1.7,3.09-1.7,5.5s.57,4.25,1.7,5.5c1.13,1.25,2.54,1.88,4.23,1.88,1.48,0,2.7-.39,3.67-1.15,.97-.77,1.58-1.82,1.86-3.15h6.74c-.54,3.02-1.89,5.4-4.05,7.15-2.16,1.75-4.85,2.63-8.08,2.63-2.44,0-4.62-.52-6.52-1.56-1.9-1.04-3.38-2.53-4.44-4.46-1.06-1.93-1.58-4.21-1.58-6.83s.53-4.91,1.58-6.86c1.06-1.95,2.53-3.43,4.44-4.46,1.9-1.03,4.07-1.54,6.52-1.54,3.23,0,5.92,.88,8.08,2.63Z"></path><path class="cls-2" d="M130.46,105.38c1.51,1,2.58,2.34,3.21,4.03v-5.21h6.34v25.08h-6.34v-5.25c-.63,1.69-1.71,3.04-3.21,4.05-1.51,1.01-3.32,1.52-5.43,1.52s-4.01-.51-5.7-1.54c-1.69-1.03-3.01-2.51-3.96-4.46s-1.43-4.23-1.43-6.86,.48-4.91,1.43-6.86,2.27-3.43,3.96-4.46c1.69-1.03,3.59-1.54,5.7-1.54s3.92,.5,5.43,1.49Zm-8.24,6.02c-1.21,1.3-1.81,3.08-1.81,5.34s.6,4.04,1.81,5.32c1.21,1.28,2.81,1.92,4.8,1.92s3.52-.66,4.78-1.97c1.25-1.31,1.88-3.07,1.88-5.27s-.63-4.01-1.88-5.32c-1.25-1.31-2.84-1.97-4.78-1.97s-3.59,.65-4.8,1.95Z"></path><path class="cls-2" d="M164.6,106.51c2.16,1.75,3.51,4.13,4.05,7.15h-6.74c-.27-1.33-.89-2.38-1.86-3.15-.97-.77-2.19-1.15-3.67-1.15-1.69,0-3.1,.63-4.23,1.88-1.13,1.25-1.7,3.09-1.7,5.5s.57,4.25,1.7,5.5c1.13,1.25,2.54,1.88,4.23,1.88,1.48,0,2.7-.39,3.67-1.15,.97-.77,1.58-1.82,1.86-3.15h6.74c-.54,3.02-1.89,5.4-4.05,7.15-2.16,1.75-4.85,2.63-8.08,2.63-2.44,0-4.62-.52-6.52-1.56-1.9-1.04-3.38-2.53-4.44-4.46-1.06-1.93-1.58-4.21-1.58-6.83s.53-4.91,1.58-6.86c1.06-1.95,2.53-3.43,4.44-4.46,1.9-1.03,4.07-1.54,6.52-1.54,3.23,0,5.92,.88,8.08,2.63Zm-3.17,26.21c1.13,.78,1.7,2.01,1.7,3.67s-.57,2.84-1.72,3.64c-1.15,.8-2.57,1.2-4.26,1.2h-5.84v-3.44h5.16c1.54,0,2.31-.54,2.31-1.63,0-.45-.19-.81-.57-1.09-.38-.27-.96-.41-1.74-.41h-2.99v-5.7h3.85v2.67c1.6-.06,2.96,.3,4.1,1.09Z"></path><path class="cls-2" d="M187.62,105.38c1.51,1,2.58,2.34,3.21,4.03v-5.21h6.34v25.08h-6.34v-5.25c-.63,1.69-1.71,3.04-3.21,4.05-1.51,1.01-3.32,1.52-5.43,1.52s-4.01-.51-5.7-1.54c-1.69-1.03-3.01-2.51-3.96-4.46s-1.43-4.23-1.43-6.86,.48-4.91,1.43-6.86,2.27-3.43,3.96-4.46c1.69-1.03,3.59-1.54,5.7-1.54s3.92,.5,5.43,1.49Zm-4.62-9.32c.48,.21,1.06,.51,1.72,.91,.54,.33,.99,.57,1.34,.72,.35,.15,.72,.23,1.11,.23,.54,0,.99-.18,1.34-.54,.35-.36,.57-.89,.66-1.58h3.3c-.3,1.99-.93,3.48-1.88,4.46-.95,.98-2.17,1.47-3.64,1.47-.63,0-1.2-.11-1.7-.32-.5-.21-1.09-.51-1.79-.91-.54-.3-.97-.53-1.29-.68-.32-.15-.67-.23-1.06-.23-1.12,0-1.78,.71-1.99,2.13h-3.26c.63-3.98,2.46-5.97,5.48-5.97,.63,0,1.19,.11,1.67,.32Zm-3.62,15.34c-1.21,1.3-1.81,3.08-1.81,5.34s.6,4.04,1.81,5.32c1.21,1.28,2.81,1.92,4.8,1.92s3.52-.66,4.78-1.97c1.25-1.31,1.88-3.07,1.88-5.27s-.63-4.01-1.88-5.32c-1.25-1.31-2.84-1.97-4.78-1.97s-3.59,.65-4.8,1.95Z"></path><path class="cls-2" d="M220.5,105.43c1.95,1.03,3.48,2.51,4.59,4.46,1.12,1.95,1.67,4.23,1.67,6.86s-.56,4.9-1.67,6.83c-1.12,1.93-2.65,3.42-4.59,4.46-1.95,1.04-4.14,1.56-6.59,1.56s-4.64-.52-6.59-1.56c-1.95-1.04-3.48-2.53-4.59-4.46-1.12-1.93-1.67-4.21-1.67-6.83s.56-4.91,1.67-6.86c1.12-1.95,2.65-3.43,4.59-4.46,1.95-1.03,4.14-1.54,6.59-1.54s4.64,.51,6.59,1.54Zm-11.11,5.86c-1.24,1.25-1.86,3.07-1.86,5.45s.62,4.2,1.86,5.45c1.24,1.25,2.75,1.88,4.53,1.88s3.29-.63,4.53-1.88c1.24-1.25,1.86-3.07,1.86-5.45s-.62-4.2-1.86-5.45c-1.24-1.25-2.75-1.88-4.53-1.88s-3.29,.63-4.53,1.88Z"></path></g><path class="cls-1" d="M69.46,0h71.25V16.05h-27.22V84.59h-16.81V16.05h-27.22V0Z"></path><path class="cls-1" d="M0,84.59V14.1C0,5.21,5.21,0,14.1,0H61.06V16.05H19.96c-1.95,0-3.15,1.19-3.15,3.15v14.32H50.97v15.62H16.81v35.46H0Z"></path><g><path class="cls-2" d="M151.67,9.9c-1.58-.98-2.55-2.69-2.55-4.55V24.19c0,1.86,.96,3.59,2.55,4.56l20.4,12.58c.71,.44,.71,1.48,0,1.92l-20.4,12.58c-1.58,.98-2.55,2.7-2.55,4.56v18.84c0-1.86,.96-3.57,2.55-4.55l29.22-18.02c10.7-6.6,10.7-22.15,0-28.75l-29.22-18.02Z"></path><path class="cls-1" d="M181.98,0h-27.51c-2.95,0-5.35,2.4-5.35,5.35,0,1.86,.96,3.57,2.55,4.55l9.98,6.15h20.34c15.62,0,27.76,10.09,27.76,26.25s-12.15,26.25-27.76,26.25h-20.34l-9.98,6.15c-1.58,.98-2.55,2.69-2.55,4.55,0,2.95,2.4,5.35,5.35,5.35h27.51c25.16,0,44.79-16.05,44.79-42.3S207.14,0,181.98,0Z"></path></g></g></g></svg>